<svg version="1.1" id="Layer_1" xmlns="http://www.w3.org/2000/svg" xmlns:xlink="http://www.w3.org/1999/xlink" x="0px" y="0px"
	 viewBox="0 0 206.622 206.622" xml:space="preserve" fill="white">
	<g>
		<g>
			<g>
				<path d="M155.287,58.38c-6.703-7.189-14.65-12.775-23.62-16.603c-1.299-0.552-2.8-0.291-3.83,0.672
					c-1.034,0.963-1.4,2.443-0.94,3.777c8.128,23.444,1.654,49.524-16.485,66.441c-18.146,16.918-44.614,21.557-67.43,11.812
					c-1.288-0.55-2.8-0.291-3.83,0.672c-1.034,0.963-1.4,2.443-0.94,3.777c3.197,9.218,8.215,17.535,14.918,24.72
					c12.721,13.643,29.996,21.517,48.64,22.168c0.836,0.03,1.668,0.043,2.5,0.043c17.728,0,34.54-6.611,47.571-18.764
					c13.647-12.724,21.517-29.998,22.168-48.643C174.658,89.807,168.011,72.025,155.287,58.38z M166.883,108.203
					c-0.585,16.74-7.655,32.251-19.905,43.675c-12.25,11.423-28.223,17.425-44.959,16.809c-16.743-0.583-32.252-7.652-43.674-19.904
					c-4.21-4.511-7.678-9.519-10.363-14.947c23.47,6.872,49.127,0.987,67.291-15.952c18.167-16.941,25.828-42.13,20.608-66.02
					c5.23,3.057,9.984,6.867,14.19,11.382C161.496,75.496,167.465,91.464,166.883,108.203z"/>
			</g>
		</g>
	</g>
</svg>
