<svg version="1.1" id="Layer_1" xmlns="http://www.w3.org/2000/svg" xmlns:xlink="http://www.w3.org/1999/xlink" x="0px" y="0px"
	 viewBox="0 0 196.118 196.118" fill="white" style="enable-background:new 0 0 196.118 196.118;" xml:space="preserve">
<g>
	<g>
		<path d="M114.104,110.441v-7.032V99.86V16.053C114.104,7.201,106.906,0,98.058,0S82.012,7.201,82.012,16.053V99.86v3.548v7.032
			C64.844,117,53.486,133.306,53.486,151.8c0,24.436,19.995,44.318,44.573,44.318s44.573-19.882,44.573-44.318
			C142.63,133.307,131.271,117.001,114.104,110.441z M89.143,78.448h7.132c1.969,0,3.566-1.597,3.566-3.566
			c0-1.969-1.597-3.566-3.566-3.566h-7.132V53.487h7.132c1.969,0,3.566-1.597,3.566-3.566c0-1.969-1.597-3.566-3.566-3.566h-7.132
			V28.526h7.132c1.969,0,3.566-1.597,3.566-3.566s-1.597-3.566-3.566-3.566h-7.132v-5.342c0-4.917,4-8.92,8.915-8.92
			s8.915,4.003,8.915,8.922v80.224H96.275h-7.132V78.448z M98.058,188.988c-20.645,0-37.441-16.682-37.441-37.187
			c0-16.252,10.464-30.491,26.038-35.432c1.482-0.47,2.488-1.844,2.488-3.399v-9.545h17.829v9.545c0,1.555,1.006,2.929,2.488,3.399
			c15.574,4.941,26.038,19.18,26.038,35.432C135.499,172.306,118.702,188.988,98.058,188.988z"/>
	</g>
</g>
<g>
</g>
<g>
</g>
<g>
</g>
<g>
</g>
<g>
</g>
<g>
</g>
<g>
</g>
<g>
</g>
<g>
</g>
<g>
</g>
<g>
</g>
<g>
</g>
<g>
</g>
<g>
</g>
<g>
</g>
</svg>
